P2
80
60
255
208 170 141 215 10 75 231 226 31 219 39 91 220 208 2 98 25 67 85 134 254 248 34 15 156 193 17 82 51 132 179 218 249 24 148 21 166 96 185 22 236 248 159 9 63 21 221 248 148 36 139 122 155 42 69 9 210 209 35 206 53 149 67 213 180 136 139 195 146 177 69 93 218 32 152 120 110 111 145 251 
3 155 102 52 52 170 175 199 23 2 27 2 85 214 142 197 115 132 15 125 55 118 213 65 68 112 218 126 210 20 212 61 55 222 245 128 63 154 26 214 197 16 245 218 187 80 160 239 232 226 137 61 249 226 253 162 6 217 200 5 185 43 51 51 71 157 113 78 250 169 235 137 195 251 45 231 68 214 64 115 
33 175 247 127 225 209 107 44 167 148 48 186 7 9 239 239 207 12 28 1 52 223 25 145 213 165 172 55 89 100 239 108 228 84 233 178 133 189 237 10 204 220 98 23 45 185 24 108 107 37 102 254 82 176 90 209 45 160 250 120 5 192 33 84 83 2 200 224 41 234 186 219 229 231 124 147 100 180 229 16 
119 55 80 115 146 77 141 111 51 82 179 79 72 88 184 172 197 86 85 160 43 215 3 229 24 27 2 40 28 229 79 110 13 170 11 103 151 49 99 47 153 67 52 246 178 100 186 221 231 69 108 60 163 240 182 139 115 139 173 8 185 235 236 78 67 9 222 5 45 244 76 255 164 187 150 25 56 72 83 93 
23 66 6 35 80 124 141 255 89 171 125 159 133 149 9 238 170 71 71 40 77 90 157 212 191 153 216 241 69 48 9 21 8 166 124 145 184 209 83 57 49 73 12 202 230 165 3 136 12 79 91 41 102 163 254 181 72 107 84 160 26 244 54 0 154 90 10 124 149 191 119 41 81 201 35 88 217 208 227 22 
106 196 107 232 225 29 17 24 156 198 115 207 92 55 201 23 254 191 143 195 115 67 204 43 50 153 136 194 162 255 56 86 57 12 228 28 236 241 97 110 104 222 158 136 237 198 55 112 16 213 143 150 157 120 155 191 216 233 17 43 198 205 48 15 227 154 118 220 120 56 134 0 53 97 110 85 2 58 188 163 
245 163 123 39 66 199 234 120 132 168 248 154 67 72 243 148 131 118 110 108 136 70 150 250 56 139 34 153 124 216 212 110 254 225 42 146 215 85 6 52 164 184 111 119 255 242 61 136 228 2 97 76 177 62 202 200 95 129 80 48 122 175 243 156 192 223 163 11 196 183 78 143 250 101 107 71 135 3 58 228 
192 6 8 130 228 225 105 163 161 231 214 72 49 252 129 37 120 175 27 75 68 222 62 151 20 36 191 168 0 228 157 59 61 246 102 35 114 158 244 107 138 189 12 125 3 201 19 151 166 138 59 60 144 75 184 192 241 132 104 142 94 245 252 60 171 123 40 39 83 228 146 183 11 114 59 57 213 202 233 181 
234 123 157 226 64 125 142 26 245 106 34 190 219 136 107 122 133 60 71 111 172 173 180 44 135 62 71 78 163 129 161 95 39 70 148 143 248 161 78 195 23 135 58 140 174 40 87 108 171 228 238 18 150 86 6 14 34 188 170 208 91 157 58 183 221 145 40 68 73 133 76 157 77 21 160 214 253 18 155 181 
228 111 150 236 37 170 149 26 80 191 159 53 237 156 70 129 199 75 94 106 217 196 232 65 58 202 57 64 27 248 226 165 154 170 111 105 171 50 58 147 160 110 152 176 167 168 108 204 191 87 184 178 200 61 31 53 32 16 113 179 247 5 59 255 218 5 254 143 66 201 70 156 207 152 241 205 201 184 27 208 
212 113 246 75 91 185 80 93 8 132 15 20 212 23 245 255 144 148 255 77 142 105 107 201 19 81 223 74 90 242 137 28 175 87 26 72 218 230 74 179 56 166 69 70 68 68 187 155 7 89 138 7 201 60 230 247 170 199 166 60 63 76 237 239 45 52 171 79 191 127 148 57 219 214 3 97 87 150 237 9 
168 208 116 96 5 237 233 91 168 89 8 97 147 103 246 229 64 67 50 135 22 195 246 45 241 140 139 51 22 18 58 130 244 178 239 76 177 56 71 217 6 245 249 195 59 183 136 215 12 190 5 190 37 32 70 128 127 206 63 249 56 239 122 71 202 255 112 82 100 185 92 153 240 170 145 146 189 219 183 1 
68 0 66 220 84 35 113 133 253 235 184 92 24 31 201 231 219 72 208 35 225 254 56 219 82 131 62 65 86 68 255 101 205 240 18 140 82 175 199 237 255 114 22 176 236 9 226 193 114 55 173 96 92 215 11 9 170 159 53 224 83 19 190 110 149 171 48 41 122 102 130 242 44 105 147 106 58 142 183 200 
108 83 11 169 2 228 206 15 15 139 40 187 162 54 242 216 183 104 167 233 124 91 146 213 101 199 84 227 144 68 77 136 121 15 61 229 189 106 42 235 137 215 53 54 173 205 45 210 215 164 213 75 63 5 167 137 56 44 122 80 120 253 213 108 152 12 254 214 61 93 169 134 150 240 24 231 108 201 214 99 
194 137 174 195 13 109 125 173 137 216 122 0 176 128 9 62 218 165 218 221 62 182 27 194 254 56 159 244 193 202 159 12 73 150 61 164 244 158 100 192 135 229 169 215 161 143 194 242 90 184 205 11 11 255 65 213 225 95 93 176 7 67 65 175 98 135 104 80 112 87 9 147 213 191 18 14 17 35 213 161 
128 170 41 109 73 39 185 217 1 249 152 117 240 213 115 179 133 126 243 161 79 249 132 253 250 218 134 40 32 240 46 214 123 178 177 150 248 142 40 163 85 90 128 195 149 244 43 101 75 105 189 151 215 184 161 212 15 174 239 54 119 34 40 13 6 98 3 109 191 90 163 210 213 170 160 152 207 198 17 162 
77 175 74 68 46 14 105 27 174 234 227 77 196 97 40 121 94 111 55 58 110 1 88 43 135 65 142 17 205 67 61 181 62 20 125 248 0 103 237 121 31 244 118 73 109 12 120 10 135 182 192 240 197 34 125 38 210 61 222 67 234 148 50 129 80 227 162 172 101 19 79 238 201 152 77 193 135 190 98 173 
197 136 143 186 123 141 118 200 6 89 89 91 195 181 22 223 205 85 171 177 4 119 15 200 218 9 236 74 15 12 134 210 95 50 121 202 133 150 64 179 48 11 104 245 143 83 44 74 245 59 179 154 127 125 147 210 63 17 78 240 89 135 121 52 155 195 210 95 154 169 28 124 34 212 202 188 178 242 145 187 
34 229 196 105 22 67 242 209 200 146 181 244 208 247 159 215 250 22 86 25 251 19 122 63 201 223 134 69 151 68 52 212 32 74 211 252 141 14 255 47 157 53 186 198 227 229 64 82 186 26 72 127 122 26 34 117 180 214 31 42 195 209 17 64 205 115 8 184 83 117 145 246 234 108 162 68 67 81 234 79 
148 88 212 206 189 71 157 6 230 252 1 107 45 213 171 90 251 30 61 117 233 216 16 1 206 160 241 52 83 184 5 80 183 192 178 6 200 249 228 156 229 132 57 5 212 95 198 14 135 173 194 173 134 12 61 112 135 179 57 1 227 83 176 182 9 173 10 52 193 55 67 60 6 41 101 208 148 179 98 1 
190 71 92 228 0 74 62 96 229 176 47 184 35 152 217 3 165 47 146 255 245 189 139 21 251 6 229 155 64 230 246 242 249 70 142 87 241 101 230 217 241 201 251 66 219 249 157 93 151 148 245 119 36 76 119 152 163 177 77 138 243 198 231 98 122 220 18 234 28 51 66 10 227 141 204 228 224 228 219 87 
223 45 113 28 0 62 87 203 25 144 28 177 169 244 69 115 138 255 164 80 20 69 98 180 75 96 170 247 205 4 19 238 170 90 190 47 247 83 253 222 255 115 169 238 24 70 199 18 219 138 255 120 37 207 98 232 129 52 136 232 244 194 125 212 210 210 44 60 58 196 227 251 14 109 86 11 191 102 254 87 
33 175 31 62 119 222 184 245 85 128 150 113 155 4 103 242 159 38 5 230 2 141 154 97 230 232 6 20 68 182 218 43 245 149 200 80 115 201 184 155 249 123 212 25 107 47 204 43 194 146 51 243 20 8 112 179 26 2 202 246 7 110 89 44 239 75 66 97 110 219 100 134 51 145 227 235 46 99 48 96 
148 252 34 157 141 178 92 145 125 38 216 92 244 248 139 209 9 229 98 145 141 73 118 253 202 28 24 121 191 2 186 183 148 70 220 22 226 66 42 102 180 221 185 203 163 154 196 206 56 238 197 26 232 97 164 214 51 95 207 17 65 104 142 29 39 203 116 91 42 248 227 128 3 239 190 253 164 76 30 187 
80 9 89 62 246 249 51 174 129 188 250 64 155 245 103 11 148 50 163 61 165 45 118 103 88 181 180 125 29 224 44 243 27 224 26 113 47 31 186 89 149 41 250 136 38 67 112 138 69 112 169 175 124 34 166 108 158 180 208 134 154 92 249 189 192 69 23 198 244 12 49 155 135 241 170 98 168 174 99 118 
64 16 115 80 210 18 50 126 73 119 232 29 42 161 66 175 88 160 180 158 182 81 56 22 88 163 181 118 140 17 221 7 237 192 254 59 254 129 62 67 34 162 224 108 175 68 237 79 213 149 43 142 89 74 164 132 224 79 38 25 83 199 252 142 14 19 244 14 28 204 2 102 90 78 98 98 120 181 199 254 
26 235 81 146 222 202 72 42 251 254 62 9 77 233 59 128 254 144 145 59 204 253 174 47 213 163 200 141 21 153 125 20 91 184 149 117 71 18 253 137 249 106 130 107 146 211 134 182 50 243 201 146 59 213 154 88 186 170 88 53 112 112 210 75 190 195 68 126 190 251 241 86 74 245 18 3 50 225 154 243 
246 189 163 13 106 33 170 30 62 108 175 187 32 113 35 97 51 53 11 94 252 105 45 172 110 226 54 180 178 108 158 167 107 245 226 222 179 72 254 150 184 70 117 51 2 173 23 251 154 120 184 91 238 251 98 129 35 208 50 60 188 20 250 245 196 53 225 185 142 30 220 70 232 130 80 67 13 109 160 202 
28 103 63 186 154 251 243 91 210 108 92 46 26 53 118 247 199 240 189 98 156 241 212 240 139 51 24 58 107 211 48 240 202 177 251 113 74 143 59 68 64 110 105 48 233 175 144 64 137 252 174 121 231 216 50 177 41 69 69 116 204 188 58 164 124 131 45 13 236 41 31 251 120 211 3 118 20 228 28 162 
109 88 177 133 108 75 163 76 31 223 166 239 255 223 230 21 239 113 197 226 190 53 208 111 254 79 151 129 4 246 21 51 99 54 103 66 227 234 35 196 240 243 78 44 199 43 13 144 38 157 93 118 49 13 220 109 57 10 108 24 153 76 194 145 99 68 55 44 191 146 34 47 213 28 203 70 239 108 119 228 
2 34 130 47 14 38 117 149 38 151 245 134 98 76 8 100 50 50 176 74 122 174 245 199 135 180 150 86 167 38 78 4 37 182 47 59 225 131 251 148 63 44 93 21 18 98 7 37 89 122 46 64 25 197 123 67 82 44 198 10 18 185 223 239 17 156 151 193 155 99 198 145 179 26 97 204 52 58 247 31 
102 106 185 147 244 74 10 106 94 162 1 127 34 192 145 208 130 192 33 76 122 51 51 228 202 135 95 105 38 71 61 185 109 110 40 59 185 174 150 229 66 193 175 100 172 179 33 104 15 44 173 115 46 189 236 12 156 100 166 161 74 123 202 244 193 148 133 110 180 176 33 83 209 207 110 81 191 194 25 170 
10 167 23 205 65 151 115 226 249 165 13 152 127 80 178 49 247 87 173 172 86 236 96 163 38 13 192 102 56 253 141 167 154 160 246 22 189 216 234 12 156 189 193 159 217 0 9 57 34 164 53 10 251 173 166 161 244 77 2 37 157 172 23 176 28 87 164 159 16 2 34 178 148 82 89 49 147 12 249 125 
80 41 136 192 238 252 18 207 20 199 155 144 45 246 11 183 192 71 120 251 54 57 223 116 248 56 41 47 73 249 33 154 75 214 79 244 180 239 244 118 84 56 112 134 62 190 247 247 106 201 82 232 28 171 106 156 208 166 212 90 108 79 46 34 150 170 12 201 140 61 124 253 134 51 149 91 203 196 93 215 
203 1 83 125 71 74 83 146 72 179 28 19 249 222 179 154 172 183 3 167 58 11 159 125 201 189 64 185 79 5 169 14 198 5 232 151 187 178 130 147 27 10 247 85 111 55 70 196 123 111 90 202 13 252 72 147 30 39 251 188 219 90 112 7 7 68 8 133 34 100 124 162 65 230 224 239 7 118 214 30 
40 41 120 14 35 134 189 118 50 33 24 73 108 92 229 135 232 47 182 243 48 43 242 192 225 68 106 8 38 55 77 172 7 235 174 250 239 123 73 76 112 25 94 177 129 128 155 143 137 34 196 23 75 214 135 92 123 101 18 209 24 223 98 246 223 114 18 14 2 222 43 188 73 204 3 138 238 121 118 130 
53 140 216 29 111 34 222 10 87 124 78 136 5 27 183 81 99 119 165 78 17 245 188 194 201 35 215 201 250 218 236 136 250 85 168 213 89 238 225 119 55 173 231 181 36 153 52 97 245 60 182 15 55 147 217 201 97 75 187 34 173 243 127 49 139 139 130 155 231 169 78 155 63 67 130 160 53 20 161 223 
160 83 130 3 128 174 147 246 247 11 80 165 108 244 114 95 92 68 11 136 196 1 126 49 43 41 122 19 55 137 126 155 90 164 24 131 175 43 16 197 52 96 236 150 205 76 200 98 3 204 69 221 75 216 114 105 180 161 237 85 91 190 30 193 128 183 123 33 64 243 190 215 17 78 205 139 170 71 125 99 
212 11 204 172 172 112 30 219 72 60 16 100 63 2 5 95 147 60 2 110 179 62 185 10 169 3 133 202 128 244 1 5 191 44 92 202 87 221 240 192 240 21 196 116 95 41 124 38 60 213 253 10 15 39 115 204 66 36 179 227 253 63 239 75 112 134 145 244 157 181 157 95 132 70 100 169 209 210 114 114 
129 26 151 238 170 122 166 173 157 110 244 143 215 87 12 185 173 197 236 67 155 255 40 200 20 163 216 21 54 224 142 139 78 228 246 251 47 200 116 55 137 138 19 200 233 72 126 189 243 84 18 211 91 102 50 197 156 176 233 244 243 68 147 44 41 215 161 196 229 177 218 3 170 37 122 42 130 226 71 78 
84 0 83 175 65 167 125 14 239 218 211 39 166 242 242 68 56 38 29 154 51 122 86 6 140 74 235 139 253 210 255 214 151 228 101 3 170 66 188 191 229 240 24 241 224 42 169 253 123 159 213 217 103 219 211 46 238 251 107 218 153 10 208 81 150 147 109 128 215 106 156 12 202 218 141 245 20 247 90 0 
77 241 57 119 190 13 207 50 86 5 120 59 144 91 172 180 219 123 63 16 19 52 11 49 13 147 180 109 213 233 170 248 31 53 31 203 169 32 205 164 214 28 121 98 105 88 207 146 127 146 222 189 21 12 198 175 43 96 73 175 71 29 213 87 120 183 104 156 83 132 248 74 37 53 116 47 147 119 111 252 
70 60 65 222 173 95 35 183 228 71 21 223 215 120 142 89 52 253 228 111 103 225 15 178 227 23 251 142 56 109 191 172 4 113 86 135 165 143 24 227 161 202 3 243 50 44 21 76 3 14 108 16 24 33 149 0 48 60 100 142 84 212 37 98 52 45 63 48 233 36 138 43 40 222 110 236 122 114 148 14 
35 0 79 95 102 194 49 10 116 226 54 192 12 9 181 142 215 14 220 165 237 55 209 22 136 35 183 83 188 144 185 216 98 184 237 95 162 103 98 167 112 104 224 211 68 75 236 50 151 69 135 49 84 41 138 50 72 92 21 245 169 23 141 62 92 250 154 127 57 171 99 72 140 227 165 115 118 26 168 5 
34 185 24 10 213 143 154 197 213 40 168 224 136 97 146 116 248 171 195 37 183 41 88 197 102 251 214 93 198 221 102 217 200 113 41 254 99 100 126 195 47 250 204 157 111 86 30 210 39 94 80 130 14 214 183 123 158 252 63 198 90 188 184 62 89 60 150 93 144 121 209 1 219 80 169 174 187 105 240 155 
226 25 65 147 29 140 242 150 230 54 218 238 240 196 4 105 71 154 64 42 57 34 24 171 13 47 8 76 193 216 16 253 103 94 153 120 116 216 102 172 79 142 195 3 179 70 120 84 254 226 16 130 101 45 205 247 23 214 99 96 201 46 229 88 187 118 121 248 94 17 124 145 219 92 102 57 85 118 76 38 
136 175 58 74 112 13 168 25 27 186 58 192 66 3 146 194 99 244 132 82 34 162 29 104 68 130 250 40 96 79 53 212 103 130 186 30 114 74 42 120 243 190 161 172 55 250 143 204 104 132 133 73 144 159 85 249 18 192 40 104 209 175 36 10 184 175 30 122 226 53 102 35 101 170 22 140 11 4 132 129 
143 235 74 109 192 146 64 69 229 83 6 109 234 185 61 73 139 131 131 38 124 213 13 132 143 227 147 232 104 225 97 179 220 88 208 171 31 138 55 91 4 199 69 164 75 119 22 80 135 173 215 230 109 26 184 82 148 100 221 167 120 218 189 120 81 230 154 22 174 113 53 108 41 21 164 205 73 182 42 191 
198 230 97 97 177 73 112 205 141 246 26 141 95 203 106 241 230 101 94 246 146 152 133 30 150 245 164 156 129 44 154 251 240 217 123 82 193 177 124 39 180 170 162 241 235 90 84 80 206 101 222 20 206 134 170 34 92 125 121 144 177 210 37 80 161 78 155 242 114 152 103 67 213 143 15 192 143 125 155 24 
242 126 19 68 86 13 140 6 236 242 57 17 206 138 97 91 255 141 144 164 34 110 78 163 252 169 147 184 151 56 234 165 175 212 135 50 74 149 224 76 230 232 84 206 88 251 52 168 158 10 11 226 26 57 105 156 95 45 137 223 157 157 20 238 214 229 252 113 133 176 208 189 38 147 68 88 243 179 149 154 
155 76 90 105 53 75 211 207 148 248 68 71 68 15 238 139 232 140 79 195 93 234 237 253 21 101 126 253 61 136 126 142 252 23 109 164 200 45 152 216 249 70 38 2 42 189 103 248 150 78 150 170 173 215 81 94 50 226 163 231 224 53 43 65 77 210 27 92 197 210 252 69 100 169 241 104 30 106 231 24 
129 223 136 47 27 100 13 248 229 188 249 117 240 64 147 112 127 48 161 160 37 6 9 204 17 71 87 136 153 100 227 254 50 235 23 241 154 105 212 248 139 38 20 218 122 20 35 192 7 24 100 244 138 33 84 186 211 75 206 238 117 204 188 236 96 31 93 116 55 120 226 59 198 115 208 249 93 101 183 227 
59 207 247 187 44 242 12 172 125 163 161 155 220 18 218 154 104 112 182 167 26 237 43 27 9 234 126 126 98 208 212 249 239 93 87 229 246 245 67 129 149 244 69 64 138 183 255 184 14 165 34 182 208 61 192 136 103 221 89 63 143 186 38 52 89 56 115 220 245 192 117 143 64 214 234 188 55 77 234 183 
125 29 239 19 204 139 125 92 163 7 57 213 193 113 51 194 38 45 238 173 247 179 89 22 114 73 73 217 86 181 45 200 129 219 148 194 51 114 242 235 122 28 129 121 125 140 94 233 226 132 28 120 120 235 226 247 87 111 191 72 8 163 71 33 9 200 212 233 223 26 142 222 57 170 88 33 13 139 27 115 
141 107 73 26 195 109 148 166 11 133 149 219 83 93 0 135 226 65 37 150 167 133 7 66 129 42 19 220 207 184 106 76 131 161 59 24 91 158 4 94 125 26 156 3 149 185 0 9 186 223 76 211 227 35 8 222 94 94 239 108 210 71 148 107 145 88 242 209 159 236 170 151 166 133 249 140 64 95 174 13 
89 122 68 235 52 159 22 198 144 228 254 39 166 182 35 244 89 98 171 225 179 193 231 185 244 163 55 155 204 76 70 141 32 120 95 252 138 239 193 51 29 18 92 14 121 108 30 154 240 154 35 215 166 182 80 16 245 201 159 231 238 140 54 160 206 79 166 189 105 166 7 147 27 13 159 45 102 157 127 73 
183 133 26 27 212 254 58 1 77 2 196 54 17 64 184 63 115 82 126 145 115 134 4 223 194 34 141 54 18 102 245 5 130 69 19 27 146 25 129 126 220 130 87 29 6 218 170 68 184 184 137 208 41 76 217 48 186 92 9 92 125 48 213 18 238 183 88 187 17 199 151 188 49 99 60 247 1 161 170 179 
90 226 202 81 244 194 217 144 164 95 75 115 26 79 92 83 4 227 59 252 132 50 202 35 57 152 218 35 206 111 112 59 228 231 4 60 108 17 240 20 242 127 77 70 40 226 37 246 21 160 153 235 137 99 205 133 41 43 172 131 65 177 106 254 180 88 93 15 221 78 78 43 234 24 128 58 68 245 229 82 
218 126 158 206 204 241 138 149 176 177 22 53 246 169 145 146 55 76 70 242 14 78 85 52 254 38 191 39 65 224 99 12 209 235 194 143 239 241 35 149 100 4 117 144 62 236 138 70 100 166 146 61 69 179 189 84 85 30 127 114 64 230 182 126 220 161 17 105 176 40 67 79 111 58 116 97 94 36 251 167 
125 159 229 70 145 61 4 135 151 8 67 110 3 23 188 90 31 75 171 210 79 118 164 71 127 224 154 103 251 17 41 69 16 141 76 113 78 92 21 246 4 210 77 245 133 114 212 141 28 107 133 170 53 142 221 49 246 112 33 14 220 198 207 179 47 235 36 118 235 255 51 141 186 238 146 70 209 64 222 101 
